packet|codec_type=video|stream_index=0|pts=0|pts_time=0.000000|dts=-3004|dts_time=-0.033378|duration=3003|duration_time=0.033367|size=4133|pos=11309|flags=K_
packet|codec_type=video|stream_index=0|pts=5440|pts_time=0.060444|dts=-567|dts_time=-0.006300|duration=3003|duration_time=0.033367|size=1077|pos=15442|flags=__
frame|media_type=video|stream_index=0|key_frame=1|pkt_pts=0|pkt_pts_time=0.000000|pkt_dts=-567|pkt_dts_time=-0.006300|best_effort_timestamp=0|best_effort_timestamp_time=0.000000|pkt_duration=3003|pkt_duration_time=0.033367|pkt_pos=11309|pkt_size=4133|width=160|height=240|pix_fmt=yuv420p|sample_aspect_ratio=2:1|pict_type=I|coded_picture_number=0|display_picture_number=0|interlaced_frame=0|top_field_first=0|repeat_pict=0|color_range=tv|color_space=smpte170m|color_primaries=smpte170m|color_transfer=bt709|chroma_location=topleftside_data|side_data_type=H.26[45] User Data Unregistered SEI message

packet|codec_type=video|stream_index=0|pts=2437|pts_time=0.027078|dts=2436|dts_time=0.027067|duration=3003|duration_time=0.033367|size=355|pos=16519|flags=__
frame|media_type=video|stream_index=0|key_frame=0|pkt_pts=2437|pkt_pts_time=0.027078|pkt_dts=2436|pkt_dts_time=0.027067|best_effort_timestamp=2437|best_effort_timestamp_time=0.027078|pkt_duration=3003|pkt_duration_time=0.033367|pkt_pos=16519|pkt_size=355|width=160|height=240|pix_fmt=yuv420p|sample_aspect_ratio=2:1|pict_type=B|coded_picture_number=2|display_picture_number=0|interlaced_frame=0|top_field_first=0|repeat_pict=0|color_range=tv|color_space=smpte170m|color_primaries=smpte170m|color_transfer=bt709|chroma_location=topleftside_data|side_data_type=H.26[45] User Data Unregistered SEI message

packet|codec_type=video|stream_index=0|pts=11446|pts_time=0.127178|dts=5439|dts_time=0.060433|duration=3003|duration_time=0.033367|size=1110|pos=16874|flags=__
frame|media_type=video|stream_index=0|key_frame=0|pkt_pts=5440|pkt_pts_time=0.060444|pkt_dts=5439|pkt_dts_time=0.060433|best_effort_timestamp=5440|best_effort_timestamp_time=0.060444|pkt_duration=3003|pkt_duration_time=0.033367|pkt_pos=15442|pkt_size=1077|width=160|height=240|pix_fmt=yuv420p|sample_aspect_ratio=2:1|pict_type=P|coded_picture_number=1|display_picture_number=0|interlaced_frame=0|top_field_first=0|repeat_pict=0|color_range=tv|color_space=smpte170m|color_primaries=smpte170m|color_transfer=bt709|chroma_location=topleftside_data|side_data_type=H.26[45] User Data Unregistered SEI message

packet|codec_type=video|stream_index=0|pts=8443|pts_time=0.093811|dts=8442|dts_time=0.093800|duration=3003|duration_time=0.033367|size=430|pos=17984|flags=__
frame|media_type=video|stream_index=0|key_frame=0|pkt_pts=8443|pkt_pts_time=0.093811|pkt_dts=8442|pkt_dts_time=0.093800|best_effort_timestamp=8443|best_effort_timestamp_time=0.093811|pkt_duration=3003|pkt_duration_time=0.033367|pkt_pos=17984|pkt_size=430|width=160|height=240|pix_fmt=yuv420p|sample_aspect_ratio=2:1|pict_type=B|coded_picture_number=4|display_picture_number=0|interlaced_frame=0|top_field_first=0|repeat_pict=0|color_range=tv|color_space=smpte170m|color_primaries=smpte170m|color_transfer=bt709|chroma_location=topleftside_data|side_data_type=H.26[45] User Data Unregistered SEI message

packet|codec_type=video|stream_index=0|pts=17452|pts_time=0.193911|dts=11445|dts_time=0.127167|duration=3003|duration_time=0.033367|size=1485|pos=18414|flags=__
frame|media_type=video|stream_index=0|key_frame=0|pkt_pts=11446|pkt_pts_time=0.127178|pkt_dts=11445|pkt_dts_time=0.127167|best_effort_timestamp=11446|best_effort_timestamp_time=0.127178|pkt_duration=3003|pkt_duration_time=0.033367|pkt_pos=16874|pkt_size=1110|width=160|height=240|pix_fmt=yuv420p|sample_aspect_ratio=2:1|pict_type=P|coded_picture_number=3|display_picture_number=0|interlaced_frame=0|top_field_first=0|repeat_pict=0|color_range=tv|color_space=smpte170m|color_primaries=smpte170m|color_transfer=bt709|chroma_location=topleftside_data|side_data_type=H.26[45] User Data Unregistered SEI message

packet|codec_type=video|stream_index=0|pts=14449|pts_time=0.160544|dts=14448|dts_time=0.160533|duration=3003|duration_time=0.033367|size=1005|pos=19899|flags=__
frame|media_type=video|stream_index=0|key_frame=0|pkt_pts=14449|pkt_pts_time=0.160544|pkt_dts=14448|pkt_dts_time=0.160533|best_effort_timestamp=14449|best_effort_timestamp_time=0.160544|pkt_duration=3003|pkt_duration_time=0.033367|pkt_pos=19899|pkt_size=1005|width=160|height=240|pix_fmt=yuv420p|sample_aspect_ratio=2:1|pict_type=B|coded_picture_number=6|display_picture_number=0|interlaced_frame=0|top_field_first=0|repeat_pict=0|color_range=tv|color_space=smpte170m|color_primaries=smpte170m|color_transfer=bt709|chroma_location=topleftside_data|side_data_type=H.26[45] User Data Unregistered SEI message

packet|codec_type=video|stream_index=0|pts=23458|pts_time=0.260644|dts=17451|dts_time=0.193900|duration=3003|duration_time=0.033367|size=1976|pos=20904|flags=__
frame|media_type=video|stream_index=0|key_frame=0|pkt_pts=17452|pkt_pts_time=0.193911|pkt_dts=17451|pkt_dts_time=0.193900|best_effort_timestamp=17452|best_effort_timestamp_time=0.193911|pkt_duration=3003|pkt_duration_time=0.033367|pkt_pos=18414|pkt_size=1485|width=160|height=240|pix_fmt=yuv420p|sample_aspect_ratio=2:1|pict_type=P|coded_picture_number=5|display_picture_number=0|interlaced_frame=0|top_field_first=0|repeat_pict=0|color_range=tv|color_space=smpte170m|color_primaries=smpte170m|color_transfer=bt709|chroma_location=topleftside_data|side_data_type=H.26[45] User Data Unregistered SEI message

packet|codec_type=video|stream_index=0|pts=20455|pts_time=0.227278|dts=20454|dts_time=0.227267|duration=3003|duration_time=0.033367|size=904|pos=22880|flags=__
frame|media_type=video|stream_index=0|key_frame=0|pkt_pts=20455|pkt_pts_time=0.227278|pkt_dts=20454|pkt_dts_time=0.227267|best_effort_timestamp=20455|best_effort_timestamp_time=0.227278|pkt_duration=3003|pkt_duration_time=0.033367|pkt_pos=22880|pkt_size=904|width=160|height=240|pix_fmt=yuv420p|sample_aspect_ratio=2:1|pict_type=B|coded_picture_number=8|display_picture_number=0|interlaced_frame=0|top_field_first=0|repeat_pict=0|color_range=tv|color_space=smpte170m|color_primaries=smpte170m|color_transfer=bt709|chroma_location=topleftside_data|side_data_type=H.26[45] User Data Unregistered SEI message

packet|codec_type=video|stream_index=0|pts=29464|pts_time=0.327378|dts=23457|dts_time=0.260633|duration=3003|duration_time=0.033367|size=1254|pos=23784|flags=__
frame|media_type=video|stream_index=0|key_frame=0|pkt_pts=23458|pkt_pts_time=0.260644|pkt_dts=23457|pkt_dts_time=0.260633|best_effort_timestamp=23458|best_effort_timestamp_time=0.260644|pkt_duration=3003|pkt_duration_time=0.033367|pkt_pos=20904|pkt_size=1976|width=160|height=240|pix_fmt=yuv420p|sample_aspect_ratio=2:1|pict_type=P|coded_picture_number=7|display_picture_number=0|interlaced_frame=0|top_field_first=0|repeat_pict=0|color_range=tv|color_space=smpte170m|color_primaries=smpte170m|color_transfer=bt709|chroma_location=topleftside_data|side_data_type=H.26[45] User Data Unregistered SEI message

packet|codec_type=video|stream_index=0|pts=26461|pts_time=0.294011|dts=26460|dts_time=0.294000|duration=3003|duration_time=0.033367|size=700|pos=25038|flags=__
frame|media_type=video|stream_index=0|key_frame=0|pkt_pts=26461|pkt_pts_time=0.294011|pkt_dts=26460|pkt_dts_time=0.294000|best_effort_timestamp=26461|best_effort_timestamp_time=0.294011|pkt_duration=3003|pkt_duration_time=0.033367|pkt_pos=25038|pkt_size=700|width=160|height=240|pix_fmt=yuv420p|sample_aspect_ratio=2:1|pict_type=B|coded_picture_number=10|display_picture_number=0|interlaced_frame=0|top_field_first=0|repeat_pict=0|color_range=tv|color_space=smpte170m|color_primaries=smpte170m|color_transfer=bt709|chroma_location=topleftside_data|side_data_type=H.26[45] User Data Unregistered SEI message

packet|codec_type=video|stream_index=0|pts=35470|pts_time=0.394111|dts=29463|dts_time=0.327367|duration=3003|duration_time=0.033367|size=1311|pos=25738|flags=__
frame|media_type=video|stream_index=0|key_frame=0|pkt_pts=29464|pkt_pts_time=0.327378|pkt_dts=29463|pkt_dts_time=0.327367|best_effort_timestamp=29464|best_effort_timestamp_time=0.327378|pkt_duration=3003|pkt_duration_time=0.033367|pkt_pos=23784|pkt_size=1254|width=160|height=240|pix_fmt=yuv420p|sample_aspect_ratio=2:1|pict_type=P|coded_picture_number=9|display_picture_number=0|interlaced_frame=0|top_field_first=0|repeat_pict=0|color_range=tv|color_space=smpte170m|color_primaries=smpte170m|color_transfer=bt709|chroma_location=topleftside_data|side_data_type=H.26[45] User Data Unregistered SEI message

packet|codec_type=video|stream_index=0|pts=32467|pts_time=0.360744|dts=32466|dts_time=0.360733|duration=3003|duration_time=0.033367|size=631|pos=27049|flags=__
frame|media_type=video|stream_index=0|key_frame=0|pkt_pts=32467|pkt_pts_time=0.360744|pkt_dts=32466|pkt_dts_time=0.360733|best_effort_timestamp=32467|best_effort_timestamp_time=0.360744|pkt_duration=3003|pkt_duration_time=0.033367|pkt_pos=27049|pkt_size=631|width=160|height=240|pix_fmt=yuv420p|sample_aspect_ratio=2:1|pict_type=B|coded_picture_number=12|display_picture_number=0|interlaced_frame=0|top_field_first=0|repeat_pict=0|color_range=tv|color_space=smpte170m|color_primaries=smpte170m|color_transfer=bt709|chroma_location=topleftside_data|side_data_type=H.26[45] User Data Unregistered SEI message

packet|codec_type=video|stream_index=0|pts=41476|pts_time=0.460844|dts=35469|dts_time=0.394100|duration=3003|duration_time=0.033367|size=1296|pos=27680|flags=__
frame|media_type=video|stream_index=0|key_frame=0|pkt_pts=35470|pkt_pts_time=0.394111|pkt_dts=35469|pkt_dts_time=0.394100|best_effort_timestamp=35470|best_effort_timestamp_time=0.394111|pkt_duration=3003|pkt_duration_time=0.033367|pkt_pos=25738|pkt_size=1311|width=160|height=240|pix_fmt=yuv420p|sample_aspect_ratio=2:1|pict_type=P|coded_picture_number=11|display_picture_number=0|interlaced_frame=0|top_field_first=0|repeat_pict=0|color_range=tv|color_space=smpte170m|color_primaries=smpte170m|color_transfer=bt709|chroma_location=topleftside_data|side_data_type=H.26[45] User Data Unregistered SEI message

packet|codec_type=video|stream_index=0|pts=38473|pts_time=0.427478|dts=38472|dts_time=0.427467|duration=3003|duration_time=0.033367|size=466|pos=28976|flags=__
frame|media_type=video|stream_index=0|key_frame=0|pkt_pts=38473|pkt_pts_time=0.427478|pkt_dts=38472|pkt_dts_time=0.427467|best_effort_timestamp=38473|best_effort_timestamp_time=0.427478|pkt_duration=3003|pkt_duration_time=0.033367|pkt_pos=28976|pkt_size=466|width=160|height=240|pix_fmt=yuv420p|sample_aspect_ratio=2:1|pict_type=B|coded_picture_number=14|display_picture_number=0|interlaced_frame=0|top_field_first=0|repeat_pict=0|color_range=tv|color_space=smpte170m|color_primaries=smpte170m|color_transfer=bt709|chroma_location=topleftside_data|side_data_type=H.26[45] User Data Unregistered SEI message

packet|codec_type=video|stream_index=0|pts=47482|pts_time=0.527578|dts=41475|dts_time=0.460833|duration=3003|duration_time=0.033367|size=1638|pos=29442|flags=__
frame|media_type=video|stream_index=0|key_frame=0|pkt_pts=41476|pkt_pts_time=0.460844|pkt_dts=41475|pkt_dts_time=0.460833|best_effort_timestamp=41476|best_effort_timestamp_time=0.460844|pkt_duration=3003|pkt_duration_time=0.033367|pkt_pos=27680|pkt_size=1296|width=160|height=240|pix_fmt=yuv420p|sample_aspect_ratio=2:1|pict_type=P|coded_picture_number=13|display_picture_number=0|interlaced_frame=0|top_field_first=0|repeat_pict=0|color_range=tv|color_space=smpte170m|color_primaries=smpte170m|color_transfer=bt709|chroma_location=topleftside_data|side_data_type=H.26[45] User Data Unregistered SEI message

packet|codec_type=video|stream_index=0|pts=44479|pts_time=0.494211|dts=44478|dts_time=0.494200|duration=3003|duration_time=0.033367|size=907|pos=31080|flags=__
frame|media_type=video|stream_index=0|key_frame=0|pkt_pts=44479|pkt_pts_time=0.494211|pkt_dts=44478|pkt_dts_time=0.494200|best_effort_timestamp=44479|best_effort_timestamp_time=0.494211|pkt_duration=3003|pkt_duration_time=0.033367|pkt_pos=31080|pkt_size=907|width=160|height=240|pix_fmt=yuv420p|sample_aspect_ratio=2:1|pict_type=B|coded_picture_number=16|display_picture_number=0|interlaced_frame=0|top_field_first=0|repeat_pict=0|color_range=tv|color_space=smpte170m|color_primaries=smpte170m|color_transfer=bt709|chroma_location=topleftside_data|side_data_type=H.26[45] User Data Unregistered SEI message

packet|codec_type=video|stream_index=0|pts=53488|pts_time=0.594311|dts=47481|dts_time=0.527567|duration=3003|duration_time=0.033367|size=1362|pos=31987|flags=__
frame|media_type=video|stream_index=0|key_frame=0|pkt_pts=47482|pkt_pts_time=0.527578|pkt_dts=47481|pkt_dts_time=0.527567|best_effort_timestamp=47482|best_effort_timestamp_time=0.527578|pkt_duration=3003|pkt_duration_time=0.033367|pkt_pos=29442|pkt_size=1638|width=160|height=240|pix_fmt=yuv420p|sample_aspect_ratio=2:1|pict_type=P|coded_picture_number=15|display_picture_number=0|interlaced_frame=0|top_field_first=0|repeat_pict=0|color_range=tv|color_space=smpte170m|color_primaries=smpte170m|color_transfer=bt709|chroma_location=topleftside_data|side_data_type=H.26[45] User Data Unregistered SEI message

packet|codec_type=video|stream_index=0|pts=50485|pts_time=0.560944|dts=50484|dts_time=0.560933|duration=3003|duration_time=0.033367|size=682|pos=33349|flags=__
frame|media_type=video|stream_index=0|key_frame=0|pkt_pts=50485|pkt_pts_time=0.560944|pkt_dts=50484|pkt_dts_time=0.560933|best_effort_timestamp=50485|best_effort_timestamp_time=0.560944|pkt_duration=3003|pkt_duration_time=0.033367|pkt_pos=33349|pkt_size=682|width=160|height=240|pix_fmt=yuv420p|sample_aspect_ratio=2:1|pict_type=B|coded_picture_number=18|display_picture_number=0|interlaced_frame=0|top_field_first=0|repeat_pict=0|color_range=tv|color_space=smpte170m|color_primaries=smpte170m|color_transfer=bt709|chroma_location=topleftside_data|side_data_type=H.26[45] User Data Unregistered SEI message

packet|codec_type=video|stream_index=0|pts=59494|pts_time=0.661044|dts=53487|dts_time=0.594300|duration=3003|duration_time=0.033367|size=2917|pos=34031|flags=__
frame|media_type=video|stream_index=0|key_frame=0|pkt_pts=53488|pkt_pts_time=0.594311|pkt_dts=53487|pkt_dts_time=0.594300|best_effort_timestamp=53488|best_effort_timestamp_time=0.594311|pkt_duration=3003|pkt_duration_time=0.033367|pkt_pos=31987|pkt_size=1362|width=160|height=240|pix_fmt=yuv420p|sample_aspect_ratio=2:1|pict_type=P|coded_picture_number=17|display_picture_number=0|interlaced_frame=0|top_field_first=0|repeat_pict=0|color_range=tv|color_space=smpte170m|color_primaries=smpte170m|color_transfer=bt709|chroma_location=topleftside_data|side_data_type=H.26[45] User Data Unregistered SEI message

packet|codec_type=video|stream_index=0|pts=56491|pts_time=0.627678|dts=56490|dts_time=0.627667|duration=3003|duration_time=0.033367|size=1174|pos=36948|flags=__
frame|media_type=video|stream_index=0|key_frame=0|pkt_pts=56491|pkt_pts_time=0.627678|pkt_dts=56490|pkt_dts_time=0.627667|best_effort_timestamp=56491|best_effort_timestamp_time=0.627678|pkt_duration=3003|pkt_duration_time=0.033367|pkt_pos=36948|pkt_size=1174|width=160|height=240|pix_fmt=yuv420p|sample_aspect_ratio=2:1|pict_type=B|coded_picture_number=20|display_picture_number=0|interlaced_frame=0|top_field_first=0|repeat_pict=0|color_range=tv|color_space=smpte170m|color_primaries=smpte170m|color_transfer=bt709|chroma_location=topleftside_data|side_data_type=H.26[45] User Data Unregistered SEI message

packet|codec_type=video|stream_index=0|pts=65500|pts_time=0.727778|dts=59493|dts_time=0.661033|duration=3003|duration_time=0.033367|size=1748|pos=38122|flags=__
frame|media_type=video|stream_index=0|key_frame=0|pkt_pts=59494|pkt_pts_time=0.661044|pkt_dts=59493|pkt_dts_time=0.661033|best_effort_timestamp=59494|best_effort_timestamp_time=0.661044|pkt_duration=3003|pkt_duration_time=0.033367|pkt_pos=34031|pkt_size=2917|width=160|height=240|pix_fmt=yuv420p|sample_aspect_ratio=2:1|pict_type=P|coded_picture_number=19|display_picture_number=0|interlaced_frame=0|top_field_first=0|repeat_pict=0|color_range=tv|color_space=smpte170m|color_primaries=smpte170m|color_transfer=bt709|chroma_location=topleftside_data|side_data_type=H.26[45] User Data Unregistered SEI message

packet|codec_type=video|stream_index=0|pts=62497|pts_time=0.694411|dts=62496|dts_time=0.694400|duration=3003|duration_time=0.033367|size=926|pos=39870|flags=__
frame|media_type=video|stream_index=0|key_frame=0|pkt_pts=62497|pkt_pts_time=0.694411|pkt_dts=62496|pkt_dts_time=0.694400|best_effort_timestamp=62497|best_effort_timestamp_time=0.694411|pkt_duration=3003|pkt_duration_time=0.033367|pkt_pos=39870|pkt_size=926|width=160|height=240|pix_fmt=yuv420p|sample_aspect_ratio=2:1|pict_type=B|coded_picture_number=22|display_picture_number=0|interlaced_frame=0|top_field_first=0|repeat_pict=0|color_range=tv|color_space=smpte170m|color_primaries=smpte170m|color_transfer=bt709|chroma_location=topleftside_data|side_data_type=H.26[45] User Data Unregistered SEI message

packet|codec_type=video|stream_index=0|pts=68503|pts_time=0.761144|dts=65499|dts_time=0.727767|duration=3003|duration_time=0.033367|size=918|pos=40796|flags=__
frame|media_type=video|stream_index=0|key_frame=0|pkt_pts=65500|pkt_pts_time=0.727778|pkt_dts=65499|pkt_dts_time=0.727767|best_effort_timestamp=65500|best_effort_timestamp_time=0.727778|pkt_duration=3003|pkt_duration_time=0.033367|pkt_pos=38122|pkt_size=1748|width=160|height=240|pix_fmt=yuv420p|sample_aspect_ratio=2:1|pict_type=P|coded_picture_number=21|display_picture_number=0|interlaced_frame=0|top_field_first=0|repeat_pict=0|color_range=tv|color_space=smpte170m|color_primaries=smpte170m|color_transfer=bt709|chroma_location=topleftside_data|side_data_type=H.26[45] User Data Unregistered SEI message

packet|codec_type=video|stream_index=0|pts=71506|pts_time=0.794511|dts=68502|dts_time=0.761133|duration=3003|duration_time=0.033367|size=3846|pos=41714|flags=K_
frame|media_type=video|stream_index=0|key_frame=0|pkt_pts=68503|pkt_pts_time=0.761144|pkt_dts=68502|pkt_dts_time=0.761133|best_effort_timestamp=68503|best_effort_timestamp_time=0.761144|pkt_duration=3003|pkt_duration_time=0.033367|pkt_pos=40796|pkt_size=918|width=160|height=240|pix_fmt=yuv420p|sample_aspect_ratio=2:1|pict_type=P|coded_picture_number=23|display_picture_number=0|interlaced_frame=0|top_field_first=0|repeat_pict=0|color_range=tv|color_space=smpte170m|color_primaries=smpte170m|color_transfer=bt709|chroma_location=topleftside_data|side_data_type=H.26[45] User Data Unregistered SEI message

packet|codec_type=video|stream_index=0|pts=77512|pts_time=0.861244|dts=71505|dts_time=0.794500|duration=3003|duration_time=0.033367|size=1932|pos=45560|flags=__
frame|media_type=video|stream_index=0|key_frame=1|pkt_pts=71506|pkt_pts_time=0.794511|pkt_dts=71505|pkt_dts_time=0.794500|best_effort_timestamp=71506|best_effort_timestamp_time=0.794511|pkt_duration=3003|pkt_duration_time=0.033367|pkt_pos=41714|pkt_size=3846|width=160|height=240|pix_fmt=yuv420p|sample_aspect_ratio=2:1|pict_type=I|coded_picture_number=24|display_picture_number=0|interlaced_frame=0|top_field_first=0|repeat_pict=0|color_range=tv|color_space=smpte170m|color_primaries=smpte170m|color_transfer=bt709|chroma_location=topleftside_data|side_data_type=H.26[45] User Data Unregistered SEI message

packet|codec_type=video|stream_index=0|pts=74509|pts_time=0.827878|dts=74508|dts_time=0.827867|duration=3003|duration_time=0.033367|size=1159|pos=47492|flags=__
frame|media_type=video|stream_index=0|key_frame=0|pkt_pts=74509|pkt_pts_time=0.827878|pkt_dts=74508|pkt_dts_time=0.827867|best_effort_timestamp=74509|best_effort_timestamp_time=0.827878|pkt_duration=3003|pkt_duration_time=0.033367|pkt_pos=47492|pkt_size=1159|width=160|height=240|pix_fmt=yuv420p|sample_aspect_ratio=2:1|pict_type=B|coded_picture_number=26|display_picture_number=0|interlaced_frame=0|top_field_first=0|repeat_pict=0|color_range=tv|color_space=smpte170m|color_primaries=smpte170m|color_transfer=bt709|chroma_location=topleftside_data|side_data_type=H.26[45] User Data Unregistered SEI message

packet|codec_type=video|stream_index=0|pts=83518|pts_time=0.927978|dts=77511|dts_time=0.861233|duration=3003|duration_time=0.033367|size=1522|pos=48651|flags=__
frame|media_type=video|stream_index=0|key_frame=0|pkt_pts=77512|pkt_pts_time=0.861244|pkt_dts=77511|pkt_dts_time=0.861233|best_effort_timestamp=77512|best_effort_timestamp_time=0.861244|pkt_duration=3003|pkt_duration_time=0.033367|pkt_pos=45560|pkt_size=1932|width=160|height=240|pix_fmt=yuv420p|sample_aspect_ratio=2:1|pict_type=P|coded_picture_number=25|display_picture_number=0|interlaced_frame=0|top_field_first=0|repeat_pict=0|color_range=tv|color_space=smpte170m|color_primaries=smpte170m|color_transfer=bt709|chroma_location=topleftside_data|side_data_type=H.26[45] User Data Unregistered SEI message

packet|codec_type=video|stream_index=0|pts=80515|pts_time=0.894611|dts=80514|dts_time=0.894600|duration=3003|duration_time=0.033367|size=719|pos=50173|flags=__
frame|media_type=video|stream_index=0|key_frame=0|pkt_pts=80515|pkt_pts_time=0.894611|pkt_dts=80514|pkt_dts_time=0.894600|best_effort_timestamp=80515|best_effort_timestamp_time=0.894611|pkt_duration=3003|pkt_duration_time=0.033367|pkt_pos=50173|pkt_size=719|width=160|height=240|pix_fmt=yuv420p|sample_aspect_ratio=2:1|pict_type=B|coded_picture_number=28|display_picture_number=0|interlaced_frame=0|top_field_first=0|repeat_pict=0|color_range=tv|color_space=smpte170m|color_primaries=smpte170m|color_transfer=bt709|chroma_location=topleftside_data|side_data_type=H.26[45] User Data Unregistered SEI message

packet|codec_type=video|stream_index=0|pts=89524|pts_time=0.994711|dts=83517|dts_time=0.927967|duration=3003|duration_time=0.033367|size=1700|pos=50892|flags=__
frame|media_type=video|stream_index=0|key_frame=0|pkt_pts=83518|pkt_pts_time=0.927978|pkt_dts=83517|pkt_dts_time=0.927967|best_effort_timestamp=83518|best_effort_timestamp_time=0.927978|pkt_duration=3003|pkt_duration_time=0.033367|pkt_pos=48651|pkt_size=1522|width=160|height=240|pix_fmt=yuv420p|sample_aspect_ratio=2:1|pict_type=P|coded_picture_number=27|display_picture_number=0|interlaced_frame=0|top_field_first=0|repeat_pict=0|color_range=tv|color_space=smpte170m|color_primaries=smpte170m|color_transfer=bt709|chroma_location=topleftside_data|side_data_type=H.26[45] User Data Unregistered SEI message

packet|codec_type=video|stream_index=0|pts=86521|pts_time=0.961344|dts=86520|dts_time=0.961333|duration=3003|duration_time=0.033367|size=1099|pos=52592|flags=__
frame|media_type=video|stream_index=0|key_frame=0|pkt_pts=86521|pkt_pts_time=0.961344|pkt_dts=86520|pkt_dts_time=0.961333|best_effort_timestamp=86521|best_effort_timestamp_time=0.961344|pkt_duration=3003|pkt_duration_time=0.033367|pkt_pos=52592|pkt_size=1099|width=160|height=240|pix_fmt=yuv420p|sample_aspect_ratio=2:1|pict_type=B|coded_picture_number=30|display_picture_number=0|interlaced_frame=0|top_field_first=0|repeat_pict=0|color_range=tv|color_space=smpte170m|color_primaries=smpte170m|color_transfer=bt709|chroma_location=topleftside_data|side_data_type=H.26[45] User Data Unregistered SEI message

packet|codec_type=video|stream_index=0|pts=95530|pts_time=1.061444|dts=89523|dts_time=0.994700|duration=3003|duration_time=0.033367|size=2558|pos=53691|flags=__
frame|media_type=video|stream_index=0|key_frame=0|pkt_pts=89524|pkt_pts_time=0.994711|pkt_dts=89523|pkt_dts_time=0.994700|best_effort_timestamp=89524|best_effort_timestamp_time=0.994711|pkt_duration=3003|pkt_duration_time=0.033367|pkt_pos=50892|pkt_size=1700|width=160|height=240|pix_fmt=yuv420p|sample_aspect_ratio=2:1|pict_type=P|coded_picture_number=29|display_picture_number=0|interlaced_frame=0|top_field_first=0|repeat_pict=0|color_range=tv|color_space=smpte170m|color_primaries=smpte170m|color_transfer=bt709|chroma_location=topleftside_data|side_data_type=H.26[45] User Data Unregistered SEI message

packet|codec_type=video|stream_index=0|pts=92527|pts_time=1.028078|dts=92526|dts_time=1.028067|duration=3003|duration_time=0.033367|size=1008|pos=56249|flags=__
frame|media_type=video|stream_index=0|key_frame=0|pkt_pts=92527|pkt_pts_time=1.028078|pkt_dts=92526|pkt_dts_time=1.028067|best_effort_timestamp=92527|best_effort_timestamp_time=1.028078|pkt_duration=3003|pkt_duration_time=0.033367|pkt_pos=56249|pkt_size=1008|width=160|height=240|pix_fmt=yuv420p|sample_aspect_ratio=2:1|pict_type=B|coded_picture_number=32|display_picture_number=0|interlaced_frame=0|top_field_first=0|repeat_pict=0|color_range=tv|color_space=smpte170m|color_primaries=smpte170m|color_transfer=bt709|chroma_location=topleftside_data|side_data_type=H.26[45] User Data Unregistered SEI message

packet|codec_type=video|stream_index=0|pts=101536|pts_time=1.128178|dts=95529|dts_time=1.061433|duration=3003|duration_time=0.033367|size=1236|pos=57257|flags=__
frame|media_type=video|stream_index=0|key_frame=0|pkt_pts=95530|pkt_pts_time=1.061444|pkt_dts=95529|pkt_dts_time=1.061433|best_effort_timestamp=95530|best_effort_timestamp_time=1.061444|pkt_duration=3003|pkt_duration_time=0.033367|pkt_pos=53691|pkt_size=2558|width=160|height=240|pix_fmt=yuv420p|sample_aspect_ratio=2:1|pict_type=P|coded_picture_number=31|display_picture_number=0|interlaced_frame=0|top_field_first=0|repeat_pict=0|color_range=tv|color_space=smpte170m|color_primaries=smpte170m|color_transfer=bt709|chroma_location=topleftside_data|side_data_type=H.26[45] User Data Unregistered SEI message

packet|codec_type=video|stream_index=0|pts=98533|pts_time=1.094811|dts=98532|dts_time=1.094800|duration=3003|duration_time=0.033367|size=607|pos=58493|flags=__
frame|media_type=video|stream_index=0|key_frame=0|pkt_pts=98533|pkt_pts_time=1.094811|pkt_dts=98532|pkt_dts_time=1.094800|best_effort_timestamp=98533|best_effort_timestamp_time=1.094811|pkt_duration=3003|pkt_duration_time=0.033367|pkt_pos=58493|pkt_size=607|width=160|height=240|pix_fmt=yuv420p|sample_aspect_ratio=2:1|pict_type=B|coded_picture_number=34|display_picture_number=0|interlaced_frame=0|top_field_first=0|repeat_pict=0|color_range=tv|color_space=smpte170m|color_primaries=smpte170m|color_transfer=bt709|chroma_location=topleftside_data|side_data_type=H.26[45] User Data Unregistered SEI message

packet|codec_type=video|stream_index=0|pts=107542|pts_time=1.194911|dts=101535|dts_time=1.128167|duration=3003|duration_time=0.033367|size=1883|pos=59100|flags=__
frame|media_type=video|stream_index=0|key_frame=0|pkt_pts=101536|pkt_pts_time=1.128178|pkt_dts=101535|pkt_dts_time=1.128167|best_effort_timestamp=101536|best_effort_timestamp_time=1.128178|pkt_duration=3003|pkt_duration_time=0.033367|pkt_pos=57257|pkt_size=1236|width=160|height=240|pix_fmt=yuv420p|sample_aspect_ratio=2:1|pict_type=P|coded_picture_number=33|display_picture_number=0|interlaced_frame=0|top_field_first=0|repeat_pict=0|color_range=tv|color_space=smpte170m|color_primaries=smpte170m|color_transfer=bt709|chroma_location=topleftside_data|side_data_type=H.26[45] User Data Unregistered SEI message

packet|codec_type=video|stream_index=0|pts=104539|pts_time=1.161544|dts=104538|dts_time=1.161533|duration=3003|duration_time=0.033367|size=893|pos=60983|flags=__
frame|media_type=video|stream_index=0|key_frame=0|pkt_pts=104539|pkt_pts_time=1.161544|pkt_dts=104538|pkt_dts_time=1.161533|best_effort_timestamp=104539|best_effort_timestamp_time=1.161544|pkt_duration=3003|pkt_duration_time=0.033367|pkt_pos=60983|pkt_size=893|width=160|height=240|pix_fmt=yuv420p|sample_aspect_ratio=2:1|pict_type=B|coded_picture_number=36|display_picture_number=0|interlaced_frame=0|top_field_first=0|repeat_pict=0|color_range=tv|color_space=smpte170m|color_primaries=smpte170m|color_transfer=bt709|chroma_location=topleftside_data|side_data_type=H.26[45] User Data Unregistered SEI message

packet|codec_type=video|stream_index=0|pts=113548|pts_time=1.261644|dts=107541|dts_time=1.194900|duration=3003|duration_time=0.033367|size=1305|pos=61876|flags=__
frame|media_type=video|stream_index=0|key_frame=0|pkt_pts=107542|pkt_pts_time=1.194911|pkt_dts=107541|pkt_dts_time=1.194900|best_effort_timestamp=107542|best_effort_timestamp_time=1.194911|pkt_duration=3003|pkt_duration_time=0.033367|pkt_pos=59100|pkt_size=1883|width=160|height=240|pix_fmt=yuv420p|sample_aspect_ratio=2:1|pict_type=P|coded_picture_number=35|display_picture_number=0|interlaced_frame=0|top_field_first=0|repeat_pict=0|color_range=tv|color_space=smpte170m|color_primaries=smpte170m|color_transfer=bt709|chroma_location=topleftside_data|side_data_type=H.26[45] User Data Unregistered SEI message

packet|codec_type=video|stream_index=0|pts=110545|pts_time=1.228278|dts=110544|dts_time=1.228267|duration=3003|duration_time=0.033367|size=472|pos=63181|flags=__
frame|media_type=video|stream_index=0|key_frame=0|pkt_pts=110545|pkt_pts_time=1.228278|pkt_dts=110544|pkt_dts_time=1.228267|best_effort_timestamp=110545|best_effort_timestamp_time=1.228278|pkt_duration=3003|pkt_duration_time=0.033367|pkt_pos=63181|pkt_size=472|width=160|height=240|pix_fmt=yuv420p|sample_aspect_ratio=2:1|pict_type=B|coded_picture_number=38|display_picture_number=0|interlaced_frame=0|top_field_first=0|repeat_pict=0|color_range=tv|color_space=smpte170m|color_primaries=smpte170m|color_transfer=bt709|chroma_location=topleftside_data|side_data_type=H.26[45] User Data Unregistered SEI message

packet|codec_type=video|stream_index=0|pts=119554|pts_time=1.328378|dts=113547|dts_time=1.261633|duration=3003|duration_time=0.033367|size=1411|pos=63653|flags=__
frame|media_type=video|stream_index=0|key_frame=0|pkt_pts=113548|pkt_pts_time=1.261644|pkt_dts=113547|pkt_dts_time=1.261633|best_effort_timestamp=113548|best_effort_timestamp_time=1.261644|pkt_duration=3003|pkt_duration_time=0.033367|pkt_pos=61876|pkt_size=1305|width=160|height=240|pix_fmt=yuv420p|sample_aspect_ratio=2:1|pict_type=P|coded_picture_number=37|display_picture_number=0|interlaced_frame=0|top_field_first=0|repeat_pict=0|color_range=tv|color_space=smpte170m|color_primaries=smpte170m|color_transfer=bt709|chroma_location=topleftside_data|side_data_type=H.26[45] User Data Unregistered SEI message

packet|codec_type=video|stream_index=0|pts=116551|pts_time=1.295011|dts=116550|dts_time=1.295000|duration=3003|duration_time=0.033367|size=616|pos=65064|flags=__
frame|media_type=video|stream_index=0|key_frame=0|pkt_pts=116551|pkt_pts_time=1.295011|pkt_dts=116550|pkt_dts_time=1.295000|best_effort_timestamp=116551|best_effort_timestamp_time=1.295011|pkt_duration=3003|pkt_duration_time=0.033367|pkt_pos=65064|pkt_size=616|width=160|height=240|pix_fmt=yuv420p|sample_aspect_ratio=2:1|pict_type=B|coded_picture_number=40|display_picture_number=0|interlaced_frame=0|top_field_first=0|repeat_pict=0|color_range=tv|color_space=smpte170m|color_primaries=smpte170m|color_transfer=bt709|chroma_location=topleftside_data|side_data_type=H.26[45] User Data Unregistered SEI message

packet|codec_type=video|stream_index=0|pts=125560|pts_time=1.395111|dts=119553|dts_time=1.328367|duration=3003|duration_time=0.033367|size=1291|pos=65680|flags=__
frame|media_type=video|stream_index=0|key_frame=0|pkt_pts=119554|pkt_pts_time=1.328378|pkt_dts=119553|pkt_dts_time=1.328367|best_effort_timestamp=119554|best_effort_timestamp_time=1.328378|pkt_duration=3003|pkt_duration_time=0.033367|pkt_pos=63653|pkt_size=1411|width=160|height=240|pix_fmt=yuv420p|sample_aspect_ratio=2:1|pict_type=P|coded_picture_number=39|display_picture_number=0|interlaced_frame=0|top_field_first=0|repeat_pict=0|color_range=tv|color_space=smpte170m|color_primaries=smpte170m|color_transfer=bt709|chroma_location=topleftside_data|side_data_type=H.26[45] User Data Unregistered SEI message

packet|codec_type=video|stream_index=0|pts=122557|pts_time=1.361744|dts=122556|dts_time=1.361733|duration=3003|duration_time=0.033367|size=470|pos=66971|flags=__
frame|media_type=video|stream_index=0|key_frame=0|pkt_pts=122557|pkt_pts_time=1.361744|pkt_dts=122556|pkt_dts_time=1.361733|best_effort_timestamp=122557|best_effort_timestamp_time=1.361744|pkt_duration=3003|pkt_duration_time=0.033367|pkt_pos=66971|pkt_size=470|width=160|height=240|pix_fmt=yuv420p|sample_aspect_ratio=2:1|pict_type=B|coded_picture_number=42|display_picture_number=0|interlaced_frame=0|top_field_first=0|repeat_pict=0|color_range=tv|color_space=smpte170m|color_primaries=smpte170m|color_transfer=bt709|chroma_location=topleftside_data|side_data_type=H.26[45] User Data Unregistered SEI message

packet|codec_type=video|stream_index=0|pts=131566|pts_time=1.461844|dts=125559|dts_time=1.395100|duration=3003|duration_time=0.033367|size=1977|pos=67441|flags=__
frame|media_type=video|stream_index=0|key_frame=0|pkt_pts=125560|pkt_pts_time=1.395111|pkt_dts=125559|pkt_dts_time=1.395100|best_effort_timestamp=125560|best_effort_timestamp_time=1.395111|pkt_duration=3003|pkt_duration_time=0.033367|pkt_pos=65680|pkt_size=1291|width=160|height=240|pix_fmt=yuv420p|sample_aspect_ratio=2:1|pict_type=P|coded_picture_number=41|display_picture_number=0|interlaced_frame=0|top_field_first=0|repeat_pict=0|color_range=tv|color_space=smpte170m|color_primaries=smpte170m|color_transfer=bt709|chroma_location=topleftside_data|side_data_type=H.26[45] User Data Unregistered SEI message

packet|codec_type=video|stream_index=0|pts=128563|pts_time=1.428478|dts=128562|dts_time=1.428467|duration=3003|duration_time=0.033367|size=436|pos=69418|flags=__
frame|media_type=video|stream_index=0|key_frame=0|pkt_pts=128563|pkt_pts_time=1.428478|pkt_dts=128562|pkt_dts_time=1.428467|best_effort_timestamp=128563|best_effort_timestamp_time=1.428478|pkt_duration=3003|pkt_duration_time=0.033367|pkt_pos=69418|pkt_size=436|width=160|height=240|pix_fmt=yuv420p|sample_aspect_ratio=2:1|pict_type=B|coded_picture_number=44|display_picture_number=0|interlaced_frame=0|top_field_first=0|repeat_pict=0|color_range=tv|color_space=smpte170m|color_primaries=smpte170m|color_transfer=bt709|chroma_location=topleftside_data|side_data_type=H.26[45] User Data Unregistered SEI message

packet|codec_type=video|stream_index=0|pts=137572|pts_time=1.528578|dts=131565|dts_time=1.461833|duration=3003|duration_time=0.033367|size=2566|pos=69854|flags=__
frame|media_type=video|stream_index=0|key_frame=0|pkt_pts=131566|pkt_pts_time=1.461844|pkt_dts=131565|pkt_dts_time=1.461833|best_effort_timestamp=131566|best_effort_timestamp_time=1.461844|pkt_duration=3003|pkt_duration_time=0.033367|pkt_pos=67441|pkt_size=1977|width=160|height=240|pix_fmt=yuv420p|sample_aspect_ratio=2:1|pict_type=P|coded_picture_number=43|display_picture_number=0|interlaced_frame=0|top_field_first=0|repeat_pict=0|color_range=tv|color_space=smpte170m|color_primaries=smpte170m|color_transfer=bt709|chroma_location=topleftside_data|side_data_type=H.26[45] User Data Unregistered SEI message

packet|codec_type=video|stream_index=0|pts=134569|pts_time=1.495211|dts=134568|dts_time=1.495200|duration=3003|duration_time=0.033367|size=886|pos=72420|flags=__
frame|media_type=video|stream_index=0|key_frame=0|pkt_pts=134569|pkt_pts_time=1.495211|pkt_dts=134568|pkt_dts_time=1.495200|best_effort_timestamp=134569|best_effort_timestamp_time=1.495211|pkt_duration=3003|pkt_duration_time=0.033367|pkt_pos=72420|pkt_size=886|width=160|height=240|pix_fmt=yuv420p|sample_aspect_ratio=2:1|pict_type=B|coded_picture_number=46|display_picture_number=0|interlaced_frame=0|top_field_first=0|repeat_pict=0|color_range=tv|color_space=smpte170m|color_primaries=smpte170m|color_transfer=bt709|chroma_location=topleftside_data|side_data_type=H.26[45] User Data Unregistered SEI message

packet|codec_type=video|stream_index=0|pts=140575|pts_time=1.561944|dts=137571|dts_time=1.528567|duration=3003|duration_time=0.033367|size=1330|pos=73306|flags=__
frame|media_type=video|stream_index=0|key_frame=0|pkt_pts=137572|pkt_pts_time=1.528578|pkt_dts=137571|pkt_dts_time=1.528567|best_effort_timestamp=137572|best_effort_timestamp_time=1.528578|pkt_duration=3003|pkt_duration_time=0.033367|pkt_pos=69854|pkt_size=2566|width=160|height=240|pix_fmt=yuv420p|sample_aspect_ratio=2:1|pict_type=P|coded_picture_number=45|display_picture_number=0|interlaced_frame=0|top_field_first=0|repeat_pict=0|color_range=tv|color_space=smpte170m|color_primaries=smpte170m|color_transfer=bt709|chroma_location=topleftside_data|side_data_type=H.26[45] User Data Unregistered SEI message

packet|codec_type=video|stream_index=0|pts=143578|pts_time=1.595311|dts=140574|dts_time=1.561933|duration=3003|duration_time=0.033367|size=2227|pos=74636|flags=K_
frame|media_type=video|stream_index=0|key_frame=0|pkt_pts=140575|pkt_pts_time=1.561944|pkt_dts=140574|pkt_dts_time=1.561933|best_effort_timestamp=140575|best_effort_timestamp_time=1.561944|pkt_duration=3003|pkt_duration_time=0.033367|pkt_pos=73306|pkt_size=1330|width=160|height=240|pix_fmt=yuv420p|sample_aspect_ratio=2:1|pict_type=P|coded_picture_number=47|display_picture_number=0|interlaced_frame=0|top_field_first=0|repeat_pict=0|color_range=tv|color_space=smpte170m|color_primaries=smpte170m|color_transfer=bt709|chroma_location=topleftside_data|side_data_type=H.26[45] User Data Unregistered SEI message

packet|codec_type=video|stream_index=0|pts=149584|pts_time=1.662044|dts=143577|dts_time=1.595300|duration=3003|duration_time=0.033367|size=2210|pos=76863|flags=__
frame|media_type=video|stream_index=0|key_frame=1|pkt_pts=143578|pkt_pts_time=1.595311|pkt_dts=143577|pkt_dts_time=1.595300|best_effort_timestamp=143578|best_effort_timestamp_time=1.595311|pkt_duration=3003|pkt_duration_time=0.033367|pkt_pos=74636|pkt_size=2227|width=160|height=240|pix_fmt=yuv420p|sample_aspect_ratio=2:1|pict_type=I|coded_picture_number=48|display_picture_number=0|interlaced_frame=0|top_field_first=0|repeat_pict=0|color_range=tv|color_space=smpte170m|color_primaries=smpte170m|color_transfer=bt709|chroma_location=topleftside_data|side_data_type=H.26[45] User Data Unregistered SEI message

packet|codec_type=video|stream_index=0|pts=146581|pts_time=1.628678|dts=146580|dts_time=1.628667|duration=3003|duration_time=0.033367|size=1498|pos=79073|flags=__
frame|media_type=video|stream_index=0|key_frame=0|pkt_pts=146581|pkt_pts_time=1.628678|pkt_dts=146580|pkt_dts_time=1.628667|best_effort_timestamp=146581|best_effort_timestamp_time=1.628678|pkt_duration=3003|pkt_duration_time=0.033367|pkt_pos=79073|pkt_size=1498|width=160|height=240|pix_fmt=yuv420p|sample_aspect_ratio=2:1|pict_type=B|coded_picture_number=50|display_picture_number=0|interlaced_frame=0|top_field_first=0|repeat_pict=0|color_range=tv|color_space=smpte170m|color_primaries=smpte170m|color_transfer=bt709|chroma_location=topleftside_data|side_data_type=H.26[45] User Data Unregistered SEI message

packet|codec_type=video|stream_index=0|pts=155590|pts_time=1.728778|dts=149583|dts_time=1.662033|duration=3003|duration_time=0.033367|size=1721|pos=80571|flags=__
frame|media_type=video|stream_index=0|key_frame=0|pkt_pts=149584|pkt_pts_time=1.662044|pkt_dts=149583|pkt_dts_time=1.662033|best_effort_timestamp=149584|best_effort_timestamp_time=1.662044|pkt_duration=3003|pkt_duration_time=0.033367|pkt_pos=76863|pkt_size=2210|width=160|height=240|pix_fmt=yuv420p|sample_aspect_ratio=2:1|pict_type=P|coded_picture_number=49|display_picture_number=0|interlaced_frame=0|top_field_first=0|repeat_pict=0|color_range=tv|color_space=smpte170m|color_primaries=smpte170m|color_transfer=bt709|chroma_location=topleftside_data|side_data_type=H.26[45] User Data Unregistered SEI message

packet|codec_type=video|stream_index=0|pts=152587|pts_time=1.695411|dts=152586|dts_time=1.695400|duration=3003|duration_time=0.033367|size=1238|pos=82292|flags=__
frame|media_type=video|stream_index=0|key_frame=0|pkt_pts=152587|pkt_pts_time=1.695411|pkt_dts=152586|pkt_dts_time=1.695400|best_effort_timestamp=152587|best_effort_timestamp_time=1.695411|pkt_duration=3003|pkt_duration_time=0.033367|pkt_pos=82292|pkt_size=1238|width=160|height=240|pix_fmt=yuv420p|sample_aspect_ratio=2:1|pict_type=B|coded_picture_number=52|display_picture_number=0|interlaced_frame=0|top_field_first=0|repeat_pict=0|color_range=tv|color_space=smpte170m|color_primaries=smpte170m|color_transfer=bt709|chroma_location=topleftside_data|side_data_type=H.26[45] User Data Unregistered SEI message

packet|codec_type=video|stream_index=0|pts=161596|pts_time=1.795511|dts=155589|dts_time=1.728767|duration=3003|duration_time=0.033367|size=1753|pos=83530|flags=__
frame|media_type=video|stream_index=0|key_frame=0|pkt_pts=155590|pkt_pts_time=1.728778|pkt_dts=155589|pkt_dts_time=1.728767|best_effort_timestamp=155590|best_effort_timestamp_time=1.728778|pkt_duration=3003|pkt_duration_time=0.033367|pkt_pos=80571|pkt_size=1721|width=160|height=240|pix_fmt=yuv420p|sample_aspect_ratio=2:1|pict_type=P|coded_picture_number=51|display_picture_number=0|interlaced_frame=0|top_field_first=0|repeat_pict=0|color_range=tv|color_space=smpte170m|color_primaries=smpte170m|color_transfer=bt709|chroma_location=topleftside_data|side_data_type=H.26[45] User Data Unregistered SEI message

packet|codec_type=video|stream_index=0|pts=158593|pts_time=1.762144|dts=158592|dts_time=1.762133|duration=3003|duration_time=0.033367|size=1014|pos=85283|flags=__
frame|media_type=video|stream_index=0|key_frame=0|pkt_pts=158593|pkt_pts_time=1.762144|pkt_dts=158592|pkt_dts_time=1.762133|best_effort_timestamp=158593|best_effort_timestamp_time=1.762144|pkt_duration=3003|pkt_duration_time=0.033367|pkt_pos=85283|pkt_size=1014|width=160|height=240|pix_fmt=yuv420p|sample_aspect_ratio=2:1|pict_type=B|coded_picture_number=54|display_picture_number=0|interlaced_frame=0|top_field_first=0|repeat_pict=0|color_range=tv|color_space=smpte170m|color_primaries=smpte170m|color_transfer=bt709|chroma_location=topleftside_data|side_data_type=H.26[45] User Data Unregistered SEI message

packet|codec_type=video|stream_index=0|pts=167602|pts_time=1.862244|dts=161595|dts_time=1.795500|duration=3003|duration_time=0.033367|size=2408|pos=86297|flags=__
frame|media_type=video|stream_index=0|key_frame=0|pkt_pts=161596|pkt_pts_time=1.795511|pkt_dts=161595|pkt_dts_time=1.795500|best_effort_timestamp=161596|best_effort_timestamp_time=1.795511|pkt_duration=3003|pkt_duration_time=0.033367|pkt_pos=83530|pkt_size=1753|width=160|height=240|pix_fmt=yuv420p|sample_aspect_ratio=2:1|pict_type=P|coded_picture_number=53|display_picture_number=0|interlaced_frame=0|top_field_first=0|repeat_pict=0|color_range=tv|color_space=smpte170m|color_primaries=smpte170m|color_transfer=bt709|chroma_location=topleftside_data|side_data_type=H.26[45] User Data Unregistered SEI message

packet|codec_type=video|stream_index=0|pts=164599|pts_time=1.828878|dts=164598|dts_time=1.828867|duration=3003|duration_time=0.033367|size=1727|pos=88705|flags=__
frame|media_type=video|stream_index=0|key_frame=0|pkt_pts=164599|pkt_pts_time=1.828878|pkt_dts=164598|pkt_dts_time=1.828867|best_effort_timestamp=164599|best_effort_timestamp_time=1.828878|pkt_duration=3003|pkt_duration_time=0.033367|pkt_pos=88705|pkt_size=1727|width=160|height=240|pix_fmt=yuv420p|sample_aspect_ratio=2:1|pict_type=B|coded_picture_number=56|display_picture_number=0|interlaced_frame=0|top_field_first=0|repeat_pict=0|color_range=tv|color_space=smpte170m|color_primaries=smpte170m|color_transfer=bt709|chroma_location=topleftside_data|side_data_type=H.26[45] User Data Unregistered SEI message

packet|codec_type=video|stream_index=0|pts=173608|pts_time=1.928978|dts=167601|dts_time=1.862233|duration=3003|duration_time=0.033367|size=1504|pos=90432|flags=__
frame|media_type=video|stream_index=0|key_frame=0|pkt_pts=167602|pkt_pts_time=1.862244|pkt_dts=167601|pkt_dts_time=1.862233|best_effort_timestamp=167602|best_effort_timestamp_time=1.862244|pkt_duration=3003|pkt_duration_time=0.033367|pkt_pos=86297|pkt_size=2408|width=160|height=240|pix_fmt=yuv420p|sample_aspect_ratio=2:1|pict_type=P|coded_picture_number=55|display_picture_number=0|interlaced_frame=0|top_field_first=0|repeat_pict=0|color_range=tv|color_space=smpte170m|color_primaries=smpte170m|color_transfer=bt709|chroma_location=topleftside_data|side_data_type=H.26[45] User Data Unregistered SEI message

packet|codec_type=video|stream_index=0|pts=170605|pts_time=1.895611|dts=170604|dts_time=1.895600|duration=3003|duration_time=0.033367|size=957|pos=91936|flags=__
frame|media_type=video|stream_index=0|key_frame=0|pkt_pts=170605|pkt_pts_time=1.895611|pkt_dts=170604|pkt_dts_time=1.895600|best_effort_timestamp=170605|best_effort_timestamp_time=1.895611|pkt_duration=3003|pkt_duration_time=0.033367|pkt_pos=91936|pkt_size=957|width=160|height=240|pix_fmt=yuv420p|sample_aspect_ratio=2:1|pict_type=B|coded_picture_number=58|display_picture_number=0|interlaced_frame=0|top_field_first=0|repeat_pict=0|color_range=tv|color_space=smpte170m|color_primaries=smpte170m|color_transfer=bt709|chroma_location=topleftside_data|side_data_type=H.26[45] User Data Unregistered SEI message

packet|codec_type=video|stream_index=0|pts=179614|pts_time=1.995711|dts=173607|dts_time=1.928967|duration=3003|duration_time=0.033367|size=1890|pos=92893|flags=__
frame|media_type=video|stream_index=0|key_frame=0|pkt_pts=173608|pkt_pts_time=1.928978|pkt_dts=173607|pkt_dts_time=1.928967|best_effort_timestamp=173608|best_effort_timestamp_time=1.928978|pkt_duration=3003|pkt_duration_time=0.033367|pkt_pos=90432|pkt_size=1504|width=160|height=240|pix_fmt=yuv420p|sample_aspect_ratio=2:1|pict_type=P|coded_picture_number=57|display_picture_number=0|interlaced_frame=0|top_field_first=0|repeat_pict=0|color_range=tv|color_space=smpte170m|color_primaries=smpte170m|color_transfer=bt709|chroma_location=topleftside_data|side_data_type=H.26[45] User Data Unregistered SEI message

packet|codec_type=video|stream_index=0|pts=176611|pts_time=1.962344|dts=176610|dts_time=1.962333|duration=3003|duration_time=0.033367|size=1239|pos=94783|flags=__
frame|media_type=video|stream_index=0|key_frame=0|pkt_pts=176611|pkt_pts_time=1.962344|pkt_dts=176610|pkt_dts_time=1.962333|best_effort_timestamp=176611|best_effort_timestamp_time=1.962344|pkt_duration=3003|pkt_duration_time=0.033367|pkt_pos=94783|pkt_size=1239|width=160|height=240|pix_fmt=yuv420p|sample_aspect_ratio=2:1|pict_type=B|coded_picture_number=60|display_picture_number=0|interlaced_frame=0|top_field_first=0|repeat_pict=0|color_range=tv|color_space=smpte170m|color_primaries=smpte170m|color_transfer=bt709|chroma_location=topleftside_data|side_data_type=H.26[45] User Data Unregistered SEI message

packet|codec_type=video|stream_index=0|pts=185620|pts_time=2.062444|dts=179613|dts_time=1.995700|duration=3003|duration_time=0.033367|size=1856|pos=96022|flags=__
frame|media_type=video|stream_index=0|key_frame=0|pkt_pts=179614|pkt_pts_time=1.995711|pkt_dts=179613|pkt_dts_time=1.995700|best_effort_timestamp=179614|best_effort_timestamp_time=1.995711|pkt_duration=3003|pkt_duration_time=0.033367|pkt_pos=92893|pkt_size=1890|width=160|height=240|pix_fmt=yuv420p|sample_aspect_ratio=2:1|pict_type=P|coded_picture_number=59|display_picture_number=0|interlaced_frame=0|top_field_first=0|repeat_pict=0|color_range=tv|color_space=smpte170m|color_primaries=smpte170m|color_transfer=bt709|chroma_location=topleftside_data|side_data_type=H.26[45] User Data Unregistered SEI message

packet|codec_type=video|stream_index=0|pts=182617|pts_time=2.029078|dts=182616|dts_time=2.029067|duration=3003|duration_time=0.033367|size=1302|pos=97878|flags=__
frame|media_type=video|stream_index=0|key_frame=0|pkt_pts=182617|pkt_pts_time=2.029078|pkt_dts=182616|pkt_dts_time=2.029067|best_effort_timestamp=182617|best_effort_timestamp_time=2.029078|pkt_duration=3003|pkt_duration_time=0.033367|pkt_pos=97878|pkt_size=1302|width=160|height=240|pix_fmt=yuv420p|sample_aspect_ratio=2:1|pict_type=B|coded_picture_number=62|display_picture_number=0|interlaced_frame=0|top_field_first=0|repeat_pict=0|color_range=tv|color_space=smpte170m|color_primaries=smpte170m|color_transfer=bt709|chroma_location=topleftside_data|side_data_type=H.26[45] User Data Unregistered SEI message

packet|codec_type=video|stream_index=0|pts=191626|pts_time=2.129178|dts=185619|dts_time=2.062433|duration=3003|duration_time=0.033367|size=1666|pos=99180|flags=__
frame|media_type=video|stream_index=0|key_frame=0|pkt_pts=185620|pkt_pts_time=2.062444|pkt_dts=185619|pkt_dts_time=2.062433|best_effort_timestamp=185620|best_effort_timestamp_time=2.062444|pkt_duration=3003|pkt_duration_time=0.033367|pkt_pos=96022|pkt_size=1856|width=160|height=240|pix_fmt=yuv420p|sample_aspect_ratio=2:1|pict_type=P|coded_picture_number=61|display_picture_number=0|interlaced_frame=0|top_field_first=0|repeat_pict=0|color_range=tv|color_space=smpte170m|color_primaries=smpte170m|color_transfer=bt709|chroma_location=topleftside_data|side_data_type=H.26[45] User Data Unregistered SEI message

packet|codec_type=video|stream_index=0|pts=188623|pts_time=2.095811|dts=188622|dts_time=2.095800|duration=3003|duration_time=0.033367|size=974|pos=100846|flags=__
frame|media_type=video|stream_index=0|key_frame=0|pkt_pts=188623|pkt_pts_time=2.095811|pkt_dts=188622|pkt_dts_time=2.095800|best_effort_timestamp=188623|best_effort_timestamp_time=2.095811|pkt_duration=3003|pkt_duration_time=0.033367|pkt_pos=100846|pkt_size=974|width=160|height=240|pix_fmt=yuv420p|sample_aspect_ratio=2:1|pict_type=B|coded_picture_number=64|display_picture_number=0|interlaced_frame=0|top_field_first=0|repeat_pict=0|color_range=tv|color_space=smpte170m|color_primaries=smpte170m|color_transfer=bt709|chroma_location=topleftside_data|side_data_type=H.26[45] User Data Unregistered SEI message

packet|codec_type=video|stream_index=0|pts=197632|pts_time=2.195911|dts=191625|dts_time=2.129167|duration=3003|duration_time=0.033367|size=580|pos=101820|flags=__
frame|media_type=video|stream_index=0|key_frame=0|pkt_pts=191626|pkt_pts_time=2.129178|pkt_dts=N/A|pkt_dts_time=N/A|best_effort_timestamp=191626|best_effort_timestamp_time=2.129178|pkt_duration=3003|pkt_duration_time=0.033367|pkt_pos=99180|pkt_size=1666|width=160|height=240|pix_fmt=yuv420p|sample_aspect_ratio=2:1|pict_type=P|coded_picture_number=63|display_picture_number=0|interlaced_frame=0|top_field_first=0|repeat_pict=0|color_range=tv|color_space=smpte170m|color_primaries=smpte170m|color_transfer=bt709|chroma_location=topleftside_data|side_data_type=H.26[45] User Data Unregistered SEI message

stream|index=0|codec_name=h264|profile=77|codec_type=video|codec_tag_string=avc1|codec_tag=0x31637661|width=160|height=240|coded_width=160|coded_height=240|closed_captions=0|has_b_frames=1|sample_aspect_ratio=2:1|display_aspect_ratio=4:3|pix_fmt=yuv420p|level=12|color_range=tv|color_space=smpte170m|color_transfer=bt709|color_primaries=smpte170m|chroma_location=topleft|field_order=unknown|refs=2|is_avc=true|nal_length_size=4|id=N/A|r_frame_rate=30000/1001|avg_frame_rate=6372000/212521|time_base=1/90000|start_pts=0|start_time=0.000000|duration_ts=2125200|duration=23.613333|bit_rate=333874|max_bit_rate=N/A|bits_per_raw_sample=8|nb_frames=708|nb_read_frames=65|nb_read_packets=66|disposition:default=1|disposition:dub=0|disposition:original=0|disposition:comment=0|disposition:lyrics=0|disposition:karaoke=0|disposition:forced=0|disposition:hearing_impaired=0|disposition:visual_impaired=0|disposition:clean_effects=0|disposition:attached_pic=0|disposition:timed_thumbnails=0|tag:rotate=0|tag:creation_time=2008-05-12T20:59:27.000000Z|tag:language=eng|tag:handler_name=Apple Video Media Handler|tag:vendor_id=appl|tag:encoder=H.264
side_data|side_data_type=Display Matrix|displaymatrix=\n00000000:       131072           0           0\n00000001:            0       65536           0\n00000002:            0           0  1073741824\n|rotation=0
